<svg width="40" height="41" viewBox="0 0 40 41" fill="none" xmlns="http://www.w3.org/2000/svg">
<path fill-rule="evenodd" clip-rule="evenodd" d="M34.5455 0.672363C37.558 0.672363 40 3.11445 40 6.12691V35.2178C40 38.2304 37.558 40.6724 34.5455 40.6724H5.45455C2.44209 40.6724 0 38.2304 0 35.2178V6.12691C0 3.11445 2.44209 0.672363 5.45455 0.672363H34.5455ZM34.5455 4.30873C35.5496 4.30873 36.3636 5.12276 36.3636 6.12691V35.2178C36.3636 36.222 35.5496 37.036 34.5455 37.036H25.4545V24.3085H29.2295C30.012 24.3085 30.7067 23.8078 30.9544 23.0653L31.7598 20.6489C32.0542 19.7658 31.3969 18.854 30.4662 18.854H25.4545V15.2177C25.4545 14.3086 26.3636 13.3995 27.2727 13.3995H30.9091C31.9133 13.3995 32.7273 12.5855 32.7273 11.5813V10.3341C32.7273 9.74675 32.3522 9.22018 31.7842 9.07031C29.4009 8.44136 27.2727 8.44136 27.2727 8.44136C22.7273 8.44136 20 11.5813 20 14.3086V18.854H16.3636C15.3595 18.854 14.5455 19.668 14.5455 20.6722V22.4904C14.5455 23.4945 15.3595 24.3085 16.3636 24.3085H20V37.036H5.45455C4.4504 37.036 3.63636 36.222 3.63636 35.2178V6.12691C3.63636 5.12276 4.4504 4.30873 5.45455 4.30873H34.5455Z" fill="#DB233C"/>
</svg>
