<svg width="40" height="41" viewBox="0 0 40 41" fill="none" xmlns="http://www.w3.org/2000/svg">
<path fill-rule="evenodd" clip-rule="evenodd" d="M19.9999 31.2933C26.0248 31.2933 30.909 26.4091 30.909 20.3842C30.909 14.3593 26.0248 9.4751 19.9999 9.4751C13.975 9.4751 9.09082 14.3593 9.09082 20.3842C9.09082 26.4091 13.975 31.2933 19.9999 31.2933ZM19.9999 27.6569C24.0165 27.6569 27.2726 24.4007 27.2726 20.3842C27.2726 16.3676 24.0165 13.1115 19.9999 13.1115C15.9833 13.1115 12.7272 16.3676 12.7272 20.3842C12.7272 24.4007 15.9833 27.6569 19.9999 27.6569Z" fill="#DB233C"/>
<path fill-rule="evenodd" clip-rule="evenodd" d="M1.18902 6.34075C0 8.67433 0 11.7292 0 17.8388V22.9297C0 29.0394 0 32.0943 1.18902 34.4277C2.23491 36.4805 3.90378 38.1494 5.95647 39.1952C8.29006 40.3843 11.3449 40.3843 17.4545 40.3843H22.5455C28.6551 40.3843 31.71 40.3843 34.0435 39.1952C36.0962 38.1494 37.7651 36.4805 38.8109 34.4277C40 32.0943 40 29.0394 40 22.9297V17.8388C40 11.7292 40 8.67433 38.8109 6.34075C37.7651 4.28806 36.0962 2.61919 34.0435 1.5733C31.71 0.384277 28.6551 0.384277 22.5455 0.384277H17.4545C11.3449 0.384277 8.29006 0.384277 5.95647 1.5733C3.90378 2.61919 2.23491 4.28806 1.18902 6.34075ZM22.5455 4.02064H17.4545C14.3397 4.02064 12.2223 4.02348 10.5856 4.15719C8.99135 4.28744 8.17607 4.52353 7.60735 4.81331C6.23889 5.51059 5.12631 6.62317 4.42904 7.99162C4.13925 8.56035 3.90316 9.37562 3.77291 10.9699C3.6392 12.6066 3.63636 14.724 3.63636 17.8388V22.9297C3.63636 26.0446 3.6392 28.1619 3.77291 29.7986C3.90316 31.393 4.13925 32.2083 4.42904 32.777C5.12631 34.1454 6.23889 35.2579 7.60735 35.9552C8.17607 36.245 8.99135 36.4812 10.5856 36.6114C12.2223 36.745 14.3397 36.7479 17.4545 36.7479H22.5455C25.6604 36.7479 27.7776 36.745 29.4144 36.6114C31.0087 36.4812 31.824 36.245 32.3927 35.9552C33.7611 35.2579 34.8736 34.1454 35.5709 32.777C35.8607 32.2083 36.0969 31.393 36.2271 29.7986C36.3607 28.1619 36.3636 26.0446 36.3636 22.9297V17.8388C36.3636 14.724 36.3607 12.6066 36.2271 10.9699C36.0969 9.37562 35.8607 8.56035 35.5709 7.99162C34.8736 6.62317 33.7611 5.51059 32.3927 4.81331C31.824 4.52353 31.0087 4.28744 29.4144 4.15719C27.7776 4.02348 25.6604 4.02064 22.5455 4.02064Z" fill="#DB233C"/>
</svg>
